<?xml version="1.0" encoding="UTF-8"?> <svg xmlns="http://www.w3.org/2000/svg" id="Warstwa_1" width="240" height="27" viewBox="0 0 240 27"><defs><style>.cls-1{fill:#ffe600;}.cls-2{fill:#fddc47;}.cls-3{fill:#474344;}</style></defs><path class="cls-3" d="m195.97,14.29h-4.35c.19-.9,1.01-1.48,2.16-1.48,1.07-.03,1.86.52,2.19,1.48m2.74,1.94v-.27c0-3.5-2.03-5.64-4.96-5.64-1.26,0-2.49.52-3.42,1.48-.93.93-1.42,2.14-1.42,3.45s.47,2.52,1.37,3.48c.96,1.01,2.08,1.51,3.5,1.51,2.08,0,3.61-.99,4.49-2.93h-3.01c-.41.36-.85.52-1.42.52-1.2,0-1.89-.52-2.16-1.51h7.01l.03-.08h0Zm7.56-1.94h-4.33c.19-.9,1.01-1.48,2.16-1.48,1.07-.03,1.86.52,2.16,1.48m2.77,1.94v-.27c0-3.5-2.03-5.64-4.96-5.64-1.26,0-2.49.52-3.42,1.48-.93.93-1.42,2.14-1.42,3.45s.47,2.52,1.37,3.48c.96,1.01,2.08,1.51,3.5,1.51,2.05,0,3.61-.99,4.49-2.93h-3.01c-.41.36-.85.52-1.42.52-1.2,0-1.89-.52-2.16-1.51h7.01l.03-.08h0Zm-23.98-3.53v7.28h2.68v-7.28h1.07v-2.08h-1.07v-.25c0-.85.19-1.12,1.01-1.12h.05v-1.89c-.16,0-.27-.03-.44-.03-2.27,0-3.34.9-3.34,2.9,0,.11.03.22.03.36h-1.01v2.08h1.01v.03Zm25.02,0v7.28h2.68v-7.28h1.07v-2.08h-1.07v-.25c0-.85.19-1.12,1.01-1.12h.05v-1.89c-.16,0-.27-.03-.44-.03-2.27,0-3.34.9-3.34,2.9,0,.11.03.22.03.36h-1.01v2.08h1.01v.03Zm10.84,2.57c0,1.29-.99,2.3-2.19,2.3s-2.19-1.01-2.19-2.3.99-2.33,2.19-2.33c1.18,0,2.19,1.04,2.19,2.33m2.68-.05c0-1.29-.55-2.55-1.51-3.5-.93-.9-2.08-1.37-3.45-1.37-1.26,0-2.49.52-3.42,1.48-.93.93-1.42,2.14-1.42,3.45s.47,2.52,1.37,3.45c.96,1.01,2.08,1.51,3.5,1.51s2.57-.52,3.5-1.48c.96-.99,1.42-2.14,1.42-3.53"></path><path class="cls-2" d="m227.8,13.69c-1.34-.08-2.38-1.15-2.44-2.46h5.72v-.05c0-2.27-1.45-3.81-3.45-3.81-2.11,0-3.53,1.56-3.53,3.59,0,1.92,1.48,3.59,3.5,3.59,1.45,0,2.63-.82,3.26-2.33h-.57c-.41.9-1.34,1.51-2.35,1.51h-.14m7.28-.03c1.34-.08,2.38-1.15,2.44-2.46h-5.72v-.05c0-2.27,1.45-3.81,3.45-3.81,2.11,0,3.53,1.56,3.53,3.59,0,1.92-1.48,3.59-3.5,3.59-1.45,0-2.63-.82-3.26-2.33h.57c.41.9,1.34,1.51,2.33,1.51h.16"></path><path class="cls-1" d="m7.88,7.03c.16-.48.83-.48.99,0l1.33,4.1c.07.21.27.36.49.36h4.31c.5,0,.71.64.31.94l-3.49,2.54c-.18.13-.26.37-.19.58l1.33,4.1c.16.48-.39.88-.8.58l-3.49-2.54c-.18-.13-.43-.13-.61,0l-3.49,2.54c-.41.3-.95-.1-.8-.58l1.33-4.1c.07-.21,0-.45-.19-.58l-3.49-2.54c-.41-.3-.2-.94.31-.94h4.31c.23,0,.42-.14.49-.36l1.33-4.1Z"></path><path class="cls-1" d="m25.19,7.03c.16-.48.83-.48.99,0l1.33,4.1c.07.21.27.36.49.36h4.31c.5,0,.71.64.31.94l-3.49,2.54c-.18.13-.26.37-.19.58l1.33,4.1c.16.48-.39.88-.8.58l-3.49-2.54c-.18-.13-.43-.13-.61,0l-3.49,2.54c-.41.3-.95-.1-.8-.58l1.33-4.1c.07-.21,0-.45-.19-.58l-3.49-2.54c-.41-.3-.2-.94.31-.94h4.31c.22,0,.42-.14.49-.36l1.33-4.1Z"></path><path class="cls-1" d="m42.51,7.03c.16-.48.83-.48.99,0l1.33,4.1c.07.21.27.36.49.36h4.31c.5,0,.71.64.31.94l-3.49,2.54c-.18.13-.26.37-.19.58l1.33,4.1c.16.48-.39.88-.8.58l-3.49-2.54c-.18-.13-.43-.13-.61,0l-3.49,2.54c-.41.3-.95-.1-.8-.58l1.33-4.1c.07-.21,0-.45-.19-.58l-3.49-2.54c-.41-.3-.2-.94.31-.94h4.31c.22,0,.42-.14.49-.36l1.33-4.1Z"></path><path class="cls-1" d="m59.82,7.03c.16-.48.83-.48.99,0l1.33,4.1c.07.21.27.36.49.36h4.31c.5,0,.71.64.31.94l-3.49,2.54c-.18.13-.26.37-.19.58l1.33,4.1c.16.48-.39.88-.8.58l-3.49-2.54c-.18-.13-.43-.13-.61,0l-3.49,2.54c-.41.3-.95-.1-.8-.58l1.33-4.1c.07-.21,0-.45-.19-.58l-3.49-2.54c-.41-.3-.2-.94.31-.94h4.31c.22,0,.42-.14.49-.36l1.33-4.1Z"></path><path class="cls-1" d="m77.13,7.03c.16-.48.83-.48.99,0l1.33,4.1c.07.21.27.36.49.36h4.31c.5,0,.71.64.31.94l-3.49,2.54c-.18.13-.26.37-.19.58l1.33,4.1c.16.48-.39.88-.8.58l-3.49-2.54c-.18-.13-.43-.13-.61,0l-3.49,2.54c-.41.3-.95-.1-.8-.58l1.33-4.1c.07-.21,0-.45-.19-.58l-3.49-2.54c-.41-.3-.2-.94.31-.94h4.31c.22,0,.42-.14.49-.36l1.33-4.1Z"></path></svg> 